<svg xmlns="http://www.w3.org/2000/svg" width="1162" height="1162" viewBox="0 0 1162 1162">
  <g id="Grupo_30" data-name="Grupo 30" transform="translate(-3558 41)">
    <rect id="Rectángulo_2" data-name="Rectángulo 2" width="1162" height="1162" rx="581" transform="translate(3558 -41)" fill="#07466b"/>
    <g id="excel" transform="translate(3812 217.99)">
      <g id="Grupo_5" data-name="Grupo 5" transform="translate(0 16.01)">
        <g id="Grupo_4" data-name="Grupo 4">
          <path id="Trazado_15" data-name="Trazado 15" d="M360.881,20.69a20.6,20.6,0,0,0-16.818-4.338L16.7,77.734A20.4,20.4,0,0,0,0,97.826V547.956a20.435,20.435,0,0,0,16.7,20.092l327.367,61.381a19.567,19.567,0,0,0,3.765.368,20.462,20.462,0,0,0,20.46-20.46V36.445A20.406,20.406,0,0,0,360.881,20.69ZM327.367,584.662,40.921,530.973V114.808L327.367,61.12Z" transform="translate(0 -16.01)" fill="#fff"/>
        </g>
      </g>
      <g id="Grupo_7" data-name="Grupo 7" transform="translate(327.367 97.826)">
        <g id="Grupo_6" data-name="Grupo 6">
          <path id="Trazado_16" data-name="Trazado 16" d="M562.906,79.99H276.46a20.46,20.46,0,0,0,0,40.921H542.446V489.2H276.46a20.46,20.46,0,0,0,0,40.921H562.906a20.468,20.468,0,0,0,20.46-20.46V100.45A20.468,20.468,0,0,0,562.906,79.99Z" transform="translate(-256 -79.99)" fill="#fff"/>
        </g>
      </g>
      <g id="Grupo_9" data-name="Grupo 9" transform="translate(327.367 179.668)">
        <g id="Grupo_8" data-name="Grupo 8">
          <path id="Trazado_17" data-name="Trazado 17" d="M358.3,143.99H276.46a20.46,20.46,0,0,0,0,40.921H358.3a20.46,20.46,0,0,0,0-40.921Z" transform="translate(-256 -143.99)" fill="#fff"/>
        </g>
      </g>
      <g id="Grupo_11" data-name="Grupo 11" transform="translate(327.367 261.51)">
        <g id="Grupo_10" data-name="Grupo 10">
          <path id="Trazado_18" data-name="Trazado 18" d="M358.3,207.99H276.46a20.46,20.46,0,1,0,0,40.921H358.3a20.46,20.46,0,0,0,0-40.921Z" transform="translate(-256 -207.99)" fill="#fff"/>
        </g>
      </g>
      <g id="Grupo_13" data-name="Grupo 13" transform="translate(327.367 343.351)">
        <g id="Grupo_12" data-name="Grupo 12">
          <path id="Trazado_19" data-name="Trazado 19" d="M358.3,271.99H276.46a20.46,20.46,0,1,0,0,40.921H358.3a20.46,20.46,0,0,0,0-40.921Z" transform="translate(-256 -271.99)" fill="#fff"/>
        </g>
      </g>
      <g id="Grupo_15" data-name="Grupo 15" transform="translate(327.367 425.193)">
        <g id="Grupo_14" data-name="Grupo 14">
          <path id="Trazado_20" data-name="Trazado 20" d="M358.3,335.99H276.46a20.46,20.46,0,1,0,0,40.921H358.3a20.46,20.46,0,1,0,0-40.921Z" transform="translate(-256 -335.99)" fill="#fff"/>
        </g>
      </g>
      <g id="Grupo_17" data-name="Grupo 17" transform="translate(491.05 179.668)">
        <g id="Grupo_16" data-name="Grupo 16">
          <path id="Trazado_21" data-name="Trazado 21" d="M445.381,143.99H404.46a20.46,20.46,0,1,0,0,40.921h40.921a20.46,20.46,0,1,0,0-40.921Z" transform="translate(-384 -143.99)" fill="#fff"/>
        </g>
      </g>
      <g id="Grupo_19" data-name="Grupo 19" transform="translate(491.05 261.51)">
        <g id="Grupo_18" data-name="Grupo 18">
          <path id="Trazado_22" data-name="Trazado 22" d="M445.381,207.99H404.46a20.46,20.46,0,1,0,0,40.921h40.921a20.46,20.46,0,1,0,0-40.921Z" transform="translate(-384 -207.99)" fill="#fff"/>
        </g>
      </g>
      <g id="Grupo_21" data-name="Grupo 21" transform="translate(491.05 343.351)">
        <g id="Grupo_20" data-name="Grupo 20">
          <path id="Trazado_23" data-name="Trazado 23" d="M445.381,271.99H404.46a20.46,20.46,0,1,0,0,40.921h40.921a20.46,20.46,0,1,0,0-40.921Z" transform="translate(-384 -271.99)" fill="#fff"/>
        </g>
      </g>
      <g id="Grupo_23" data-name="Grupo 23" transform="translate(491.05 425.193)">
        <g id="Grupo_22" data-name="Grupo 22">
          <path id="Trazado_24" data-name="Trazado 24" d="M445.381,335.99H404.46a20.46,20.46,0,1,0,0,40.921h40.921a20.46,20.46,0,1,0,0-40.921Z" transform="translate(-384 -335.99)" fill="#fff"/>
        </g>
      </g>
      <g id="Grupo_25" data-name="Grupo 25" transform="translate(102.308 220.581)">
        <g id="Grupo_24" data-name="Grupo 24">
          <path id="Trazado_25" data-name="Trazado 25" d="M259.109,346.673,115.886,182.989a20.46,20.46,0,0,0-30.813,26.926L228.3,373.6a20.46,20.46,0,0,0,30.813-26.926Z" transform="translate(-80.004 -175.984)" fill="#fff"/>
        </g>
      </g>
      <g id="Grupo_27" data-name="Grupo 27" transform="translate(102.301 200.131)">
        <g id="Grupo_26" data-name="Grupo 26">
          <path id="Trazado_26" data-name="Trazado 26" d="M256.246,164.327a20.457,20.457,0,0,0-28.726,3.56L84.3,352.031A20.468,20.468,0,0,0,116.583,377.2L259.806,193.053A20.448,20.448,0,0,0,256.246,164.327Z" transform="translate(-79.999 -159.992)" fill="#fff"/>
        </g>
      </g>
    </g>
  </g>
</svg>
