<?xml version="1.0" encoding="iso-8859-1"?>
<!-- Generator: Adobe Illustrator 19.0.0, SVG Export Plug-In . SVG Version: 6.00 Build 0)  -->
<svg version="1.1" id="Layer_1" xmlns="http://www.w3.org/2000/svg" xmlns:xlink="http://www.w3.org/1999/xlink" x="0px" y="0px"
	 viewBox="0 0 512 512" style="enable-background:new 0 0 512 512;" xml:space="preserve">
<path style="fill:#0575A5;" d="M512,256c0,141.391-114.611,256-256,256C114.614,512,0,397.391,0,256C0,114.616,114.614,0,256,0
	C397.389,0,512,114.616,512,256z"/>
<path style="fill:#025E90;" d="M511.739,266.414L364.18,118.861H155.433v20.92h-7.611v5.486l7.611,7.606v5.814h-7.611v5.486
	l7.611,7.606v5.814h-7.611v5.486l7.611,7.606v5.85h-7.611v5.45l7.611,7.611v5.847h-7.611v5.489l7.611,7.606v5.814h-7.611v5.486
	h0.141l-0.141,0.038l7.611,7.606v5.775h-7.611v5.486h0.282l-0.282,0.079l7.611,7.608v5.734h-7.611v5.489h0.425l-0.425,0.113
	l7.611,7.606v5.737h-7.611v5.486h0.425l-0.425,0.113l7.611,7.611v5.701h-7.611v5.486h0.556l-0.556,0.151l7.611,7.608v5.67h-7.611
	v5.486h0.676l-0.676,0.179l7.611,7.611v5.632h-7.611v5.486h0.806l-0.806,0.218l7.611,7.606v5.637h-7.611v5.486h0.806l-0.806,0.212
	l7.611,7.608v13.056h0.036l118.164,118.185C403.354,502.497,506.501,397.094,511.739,266.414z"/>
<rect x="170.266" y="118.861" style="fill:#34495E;" width="193.946" height="274.278"/>
<rect x="168.381" y="122.432" style="fill:#FFFFFF;" width="188.416" height="267.162"/>
<rect x="155.438" y="118.861" style="fill:#FF8E31;" width="193.946" height="274.278"/>
<rect x="155.438" y="118.861" style="fill:#FF9D4D;" width="111.785" height="274.278"/>
<rect x="353.101" y="127.506" style="fill:#F28124;" width="7.404" height="13.023"/>
<rect x="353.101" y="140.529" style="fill:#CEE2F2;" width="7.404" height="13.028"/>
<rect x="353.101" y="153.556" style="fill:#F28124;" width="7.404" height="13.03"/>
<rect x="353.101" y="166.579" style="fill:#CEE2F2;" width="7.404" height="13.036"/>
<rect x="353.101" y="179.635" style="fill:#F28124;" width="7.404" height="13.028"/>
<rect x="353.101" y="192.64" style="fill:#CEE2F2;" width="7.404" height="13.02"/>
<rect x="353.101" y="205.67" style="fill:#F28124;" width="7.404" height="13.036"/>
<rect x="353.101" y="218.701" style="fill:#CEE2F2;" width="7.404" height="13.028"/>
<rect x="155.438" y="118.861" style="fill:#34495E;" width="29.676" height="274.278"/>
<g>
	<rect x="147.812" y="139.768" style="fill:#FFFFFF;" width="15.25" height="5.486"/>
	<rect x="147.812" y="158.679" style="fill:#FFFFFF;" width="15.25" height="5.494"/>
	<rect x="147.812" y="177.587" style="fill:#FFFFFF;" width="15.25" height="5.478"/>
	<rect x="147.812" y="196.531" style="fill:#FFFFFF;" width="15.25" height="5.478"/>
	<rect x="147.812" y="215.424" style="fill:#FFFFFF;" width="15.25" height="5.494"/>
	<rect x="147.812" y="234.342" style="fill:#FFFFFF;" width="15.25" height="5.486"/>
	<rect x="147.812" y="253.261" style="fill:#FFFFFF;" width="15.25" height="5.486"/>
	<rect x="147.812" y="272.179" style="fill:#FFFFFF;" width="15.25" height="5.494"/>
	<rect x="147.812" y="291.098" style="fill:#FFFFFF;" width="15.25" height="5.494"/>
	<rect x="147.812" y="310.016" style="fill:#FFFFFF;" width="15.25" height="5.478"/>
	<rect x="147.812" y="328.934" style="fill:#FFFFFF;" width="15.25" height="5.478"/>
	<rect x="147.812" y="347.853" style="fill:#FFFFFF;" width="15.25" height="5.486"/>
	<rect x="147.812" y="366.746" style="fill:#FFFFFF;" width="15.25" height="5.494"/>
	<rect x="217.011" y="173.107" style="fill:#FFFFFF;" width="100.48" height="7.245"/>
	<rect x="217.011" y="192.896" style="fill:#FFFFFF;" width="100.48" height="7.229"/>
	<rect x="217.011" y="212.685" style="fill:#FFFFFF;" width="100.48" height="7.235"/>
</g>
<g>
</g>
<g>
</g>
<g>
</g>
<g>
</g>
<g>
</g>
<g>
</g>
<g>
</g>
<g>
</g>
<g>
</g>
<g>
</g>
<g>
</g>
<g>
</g>
<g>
</g>
<g>
</g>
<g>
</g>
</svg>
