<svg xmlns="http://www.w3.org/2000/svg" width="1162" height="1162" viewBox="0 0 1162 1162">
  <g id="Grupo_29" data-name="Grupo 29" transform="translate(-2181 41)">
    <rect id="Rectángulo_1" data-name="Rectángulo 1" width="1162" height="1162" rx="581" transform="translate(2181 -41)" fill="#07466b"/>
    <g id="global" transform="translate(2415 193)">
      <g id="Grupo_3" data-name="Grupo 3">
        <path id="Trazado_4" data-name="Trazado 4" d="M593.058,101.752A347.406,347.406,0,0,0,101.752,593.058,347.406,347.406,0,0,0,593.058,101.752ZM281.519,47.86a444.556,444.556,0,0,0-36.849,40.566,422.4,422.4,0,0,0-54.129,87.234H93.43A307.519,307.519,0,0,1,281.519,47.86ZM70.153,216.372H174.4a408.456,408.456,0,0,0-20.569,110.677H41.4A304.411,304.411,0,0,1,70.153,216.372ZM41.4,367.761H153.831A408.4,408.4,0,0,0,174.4,478.438H70.153A304.411,304.411,0,0,1,41.4,367.761ZM93.43,519.149h97.111a422.437,422.437,0,0,0,54.129,87.234,444.146,444.146,0,0,0,36.849,40.566A307.519,307.519,0,0,1,93.43,519.149Zm233.619,114.33a400.181,400.181,0,0,1-50.611-52.556,387.757,387.757,0,0,1-40.653-61.774h91.264Zm0-155.042H217.424a364.268,364.268,0,0,1-22.83-110.677H327.049Zm0-151.388H194.594A364.239,364.239,0,0,1,217.44,216.372H327.049Zm0-151.388H235.785A387.613,387.613,0,0,1,275.469,115.1a400.063,400.063,0,0,1,51.58-53.712ZM653.406,327.049H540.979A408.4,408.4,0,0,0,520.41,216.372H624.657A304.385,304.385,0,0,1,653.406,327.049ZM601.38,175.661H504.269A422.44,422.44,0,0,0,450.14,88.427,444.162,444.162,0,0,0,413.291,47.86,307.512,307.512,0,0,1,601.38,175.661ZM367.761,61.331a400.179,400.179,0,0,1,50.611,52.556,387.862,387.862,0,0,1,40.655,61.774H367.761Zm0,155.042H477.386a364.229,364.229,0,0,1,22.83,110.677H367.761Zm0,151.389H500.214a364.238,364.238,0,0,1-22.846,110.677H367.761Zm0,265.66V519.149h91.264a387.533,387.533,0,0,1-39.684,60.56A400.062,400.062,0,0,1,367.761,633.421Zm45.532,13.528a444.535,444.535,0,0,0,36.849-40.566,422.4,422.4,0,0,0,54.129-87.234h97.111A307.519,307.519,0,0,1,413.292,646.949ZM624.657,478.438H520.41a408.454,408.454,0,0,0,20.569-110.677H653.406A304.384,304.384,0,0,1,624.657,478.438Z" fill="#fff"/>
      </g>
    </g>
  </g>
</svg>
