<svg xmlns="http://www.w3.org/2000/svg" width="1162" height="1162" viewBox="0 0 1162 1162">
  <g id="Grupo_32" data-name="Grupo 32" transform="translate(-2181 -1472)">
    <rect id="Rectángulo_3" data-name="Rectángulo 3" width="1162" height="1162" rx="581" transform="translate(2181 1472)" fill="#07466b"/>
    <g id="translate" transform="translate(2442 1720)">
      <path id="Trazado_12" data-name="Trazado 12" d="M382.35,309.331c-1.656-5.525-8.47-8.108-15.468-8.108-6.814,0-13.628,2.583-15.284,8.108L316.055,425.16a10.678,10.678,0,0,0-.367,1.84c0,5.9,8.654,9.943,15.1,9.943,4.052,0,7.181-1.285,8.1-4.786l6.993-24.494h42.173l7,24.494c.918,3.5,4.047,4.786,8.1,4.786,6.447,0,15.1-4.231,15.1-9.943a8.111,8.111,0,0,0-.367-1.84Zm-31.491,79.547,16.019-56.531,16.028,56.531Zm0,0" transform="translate(86.474 104.781)" fill="#fff"/>
      <path id="Trazado_13" data-name="Trazado 13" d="M571.767,271.776H379.391V186.355l62.52-46.426a19.972,19.972,0,0,0,0-31.762L378.638,61.181C373.695,26.608,344.952,0,310.348,0H69.047C30.972,0,0,32.2,0,71.784V322.656c0,39.58,30.972,71.779,69.047,71.779H261.419v85.421L198.9,526.282a19.972,19.972,0,0,0,0,31.762l63.273,46.985c4.943,34.573,33.685,61.182,68.289,61.182H571.767c38.071,0,69.042-32.2,69.042-71.784V343.561c0-39.585-30.972-71.784-69.042-71.784ZM69.047,355.4c-17.371,0-31.5-14.689-31.5-32.748V71.779c0-18.054,14.129-32.743,31.5-32.743h241.3c17.366,0,31.495,14.689,31.495,32.743A19.758,19.758,0,0,0,349.7,87.662L398.7,124.045,349.7,160.427a19.773,19.773,0,0,0-7.861,15.884v95.465H330.462c-38.071,0-69.042,32.2-69.042,71.779V355.4ZM603.262,594.426c0,18.059-14.129,32.748-31.495,32.748H330.461c-17.366,0-31.495-14.689-31.495-32.748a19.756,19.756,0,0,0-7.862-15.879l-48.992-36.383L291.1,505.783a19.773,19.773,0,0,0,7.862-15.884V343.56c0-18.059,14.129-32.748,31.495-32.748H571.767c17.366,0,31.495,14.689,31.495,32.748Zm0,0" transform="translate(0)" fill="#fff"/>
      <path id="Trazado_14" data-name="Trazado 14" d="M212.356,144.987a9.7,9.7,0,0,0,0-19.394H169.229v-23.54a9.695,9.695,0,1,0-19.39,0v23.54H106.712a9.7,9.7,0,0,0,0,19.394h13.364a92.473,92.473,0,0,0,24.243,53.308,72.986,72.986,0,0,1-37.607,10.4,9.695,9.695,0,0,0,0,19.39,92.215,92.215,0,0,0,52.82-16.565,92.24,92.24,0,0,0,52.824,16.565,9.695,9.695,0,0,0,0-19.39,72.9,72.9,0,0,1-37.607-10.4,92.473,92.473,0,0,0,24.243-53.308ZM159.532,186.18a73.221,73.221,0,0,1-19.918-41.193h39.841A73.2,73.2,0,0,1,159.532,186.18Zm0,0" transform="translate(27.179 32.126)" fill="#fff"/>
    </g>
  </g>
</svg>
